<svg id="Capa_1" enable-background="new 0 0 512 512" height="512" viewBox="0 0 512 512" width="512" xmlns="http://www.w3.org/2000/svg"><g id="Location"><ellipse cx="256" cy="448" fill="#c8fa64" rx="160" ry="64"/><path d="m416 160c0 78.721-60.48 169.6-106.881 227.84-16.639-2.561-34.558-3.84-53.119-3.84s-36.48 1.279-53.119 3.84c-46.401-58.24-106.881-149.119-106.881-227.84 0-88.32 71.68-160 160-160s160 71.68 160 160z" fill="#4de600"/><path d="m309.119 387.84c-29.439 36.48-53.119 60.16-53.119 60.16s-23.68-23.68-53.119-60.16c16.639-2.561 34.558-3.84 53.119-3.84s36.48 1.279 53.119 3.84z" fill="#0c0"/><circle cx="256" cy="160" fill="#c8fa64" r="96"/></g></svg>