<svg id="Capa_1" enable-background="new 0 0 512 512" height="512" viewBox="0 0 512 512" width="512" xmlns="http://www.w3.org/2000/svg"><g id="Phone_1_"><path d="m448 320v128c-44.487 0-189.704-5.43-316.801-131.201-125.782-127.108-131.199-272.349-131.199-316.799h128l32 128-77.439 70.719c19.199 35.201 43.199 67.201 71.359 95.361s60.16 52.16 95.359 71.359l70.721-77.439z" fill="#d580ff"/><path d="m512 432v32c0 26.51-21.49 48-48 48h-464v-32h464c8.837 0 16-7.163 16-16v-32c0-8.837-7.163-16-16-16h-16v-32h16c26.51 0 48 21.49 48 48z" fill="#ff8de4"/><path d="m480 112c0 61.76-64.32 112-144 112h-112l21.76-24.961c-32.959-20.478-53.76-51.84-53.76-87.039 0-61.76 64.32-112 144-112s144 50.24 144 112z" fill="#ff95ff"/><g fill="#96f"><circle cx="336" cy="112" r="16"/><circle cx="400" cy="112" r="16"/><circle cx="272" cy="112" r="16"/><path d="m384 384h64v32h-64z"/></g></g></svg>