<?xml version="1.0" encoding="iso-8859-1"?>
<!-- Generator: Adobe Illustrator 19.0.0, SVG Export Plug-In . SVG Version: 6.00 Build 0)  -->
<svg version="1.1" id="Capa_1" xmlns="http://www.w3.org/2000/svg" xmlns:xlink="http://www.w3.org/1999/xlink" x="0px" y="0px"
	 viewBox="0 0 512 512" style="enable-background:new 0 0 512 512;" xml:space="preserve">
<path style="fill:#53515E;" d="M486.641,445.668V143.615c0-19.114-15.197-34.608-33.944-34.608H59.304
	c-18.747,0-33.944,15.495-33.944,34.608v301.85"/>
<path style="fill:#DFE2EA;" d="M301.253,443.228L301.253,443.228c-38.353,0-54.059,0-90.781,0l0,0H5.002
	C2.24,443.228,0,445.467,0,448.23v11.349c0,27,21.888,48.888,48.888,48.888h414.224c27,0,48.888-21.888,48.888-48.888V448.23
	c0-2.762-2.239-5.002-5.002-5.002H301.253z"/>
<path style="fill:#C7CAD3;" d="M2.784,475.848c6.705,19,24.81,32.619,46.104,32.619h414.224c21.295,0,39.4-13.619,46.104-32.619
	H301.253c-38.353,0-54.059,0-90.781,0H2.784z"/>
<rect x="63.922" y="147.05" style="fill:#FFFFFF;" width="387.85" height="258.81"/>
<path style="fill:#C7CAD3;" d="M215.557,8.484v51.254c0,6.333-5.134,11.467-11.467,11.467h-37.081
	c-6.333,0-11.467-5.134-11.467-11.467V8.484c0-2.739-2.935-4.515-5.338-3.202c-22.923,12.526-38.479,36.843-38.479,64.806
	c0,29.843,17.718,55.531,43.2,67.169L144.83,363.233c-1.037,23.203,17.495,42.581,40.721,42.581l0,0
	c23.336,0,41.909-19.554,40.707-42.86L214.66,137.943c26.296-11.296,44.716-37.421,44.716-67.855
	c0-27.964-15.556-52.28-38.479-64.806C218.491,3.969,215.557,5.745,215.557,8.484z M193.769,372.875
	c-4.769,4.769-12.501,4.769-17.27,0s-4.769-12.501,0-17.27c4.769-4.769,12.501-4.769,17.27,0
	C198.538,360.374,198.538,368.106,193.769,372.875z"/>
<g>
	<path style="fill:#AAACB2;" d="M215.706,117.239l1.019,19.772c25.188-11.754,42.649-37.293,42.649-66.922
		c0-2.224-0.11-4.422-0.303-6.595C254.379,87.729,237.832,107.734,215.706,117.239z"/>
	<path style="fill:#AAACB2;" d="M145.755,342.491l-0.927,20.744c-1.037,23.203,17.495,42.581,40.721,42.581l0,0
		c23.336,0,41.909-19.554,40.707-42.86l-0.394-7.648c-4.772,17.114-20.469,29.803-39.265,29.803l0,0
		C163.371,385.11,144.718,365.694,145.755,342.491"/>
	<path style="fill:#AAACB2;" d="M154.923,137.258l1.048-20.705c-23.58-10.769-40.5-33.574-42.896-60.565
		c-0.884,4.564-1.352,9.277-1.352,14.1C111.724,99.932,129.442,125.62,154.923,137.258"/>
</g>
<path style="fill:#E9EBF2;" d="M351.154,3.533h-31.566c-3.036,0-5.205,2.94-4.308,5.841l7.601,24.594V189.25h24.981V33.968
	l7.601-24.595C356.359,6.473,354.19,3.533,351.154,3.533z"/>
<path style="fill:#C7CAD3;" d="M351.154,3.533h-7.969c1.609,1.051,2.476,3.089,1.851,5.111l-7.601,24.595v155.282h-14.554v0.73
	h24.981V33.968l7.601-24.595C356.359,6.473,354.19,3.533,351.154,3.533z"/>
<path style="fill:#FFDC64;" d="M354.265,248.418c0-13.476,8.094-25.056,19.682-30.162v-16.797c0-7.618-6.175-13.793-13.793-13.793
	h-49.568c-7.618,0-13.793,6.175-13.793,13.793v16.797c11.588,5.106,19.682,16.686,19.682,30.162
	c0,13.476-8.094,25.056-19.682,30.162v89.049c0,21.305,17.271,38.577,38.577,38.577l0,0c21.305,0,38.577-17.271,38.577-38.577
	V278.58C362.359,273.474,354.265,261.895,354.265,248.418z"/>
<path style="fill:#FFC850;" d="M360.155,187.666h-11.721c4.046,2.404,6.766,6.806,6.766,11.853v16.797
	c-11.588,5.106-19.682,16.686-19.682,30.162c0,13.476,8.094,25.056,19.682,30.162v89.049c0,19.438-14.379,35.511-33.079,38.18
	c4.132,1.511,8.594,2.336,13.25,2.336c21.305,0,38.577-17.271,38.577-38.577v-89.049c-11.588-5.106-19.682-16.686-19.682-30.162
	c0-13.477,8.094-25.056,19.682-30.162v-16.797C373.947,193.841,367.772,187.666,360.155,187.666z"/>
<g>
	<path style="fill:#FF6B5C;" d="M326.59,365.892c-0.93,0.93-2.216,1.506-3.636,1.507c-2.84,0-5.143-2.303-5.143-5.143v-68.895
		c0.001-2.84,2.303-5.142,5.143-5.143c2.84,0,5.143,2.303,5.143,5.143v68.895C328.096,363.676,327.521,364.962,326.59,365.892z"/>
	<path style="fill:#FF6B5C;" d="M352.046,365.892c-0.93,0.93-2.216,1.506-3.636,1.507c-2.84,0-5.143-2.303-5.143-5.143v-68.895
		c0.001-2.84,2.303-5.142,5.143-5.143c2.84,0,5.143,2.303,5.143,5.143v68.895C353.552,363.676,352.976,364.962,352.046,365.892z"/>
</g>
<g>
</g>
<g>
</g>
<g>
</g>
<g>
</g>
<g>
</g>
<g>
</g>
<g>
</g>
<g>
</g>
<g>
</g>
<g>
</g>
<g>
</g>
<g>
</g>
<g>
</g>
<g>
</g>
<g>
</g>
</svg>
